#!OML:ASF F:\VICON\USERDATA\INSTALL\rory3\rory3.ASF
:FULLY-SPECIFIED
:DEGREES
681
root 2.71377 16.619 8.42141 -6.12292 25.0742 1.55875
lowerback 6.12576 -8.16197 -5.34066
upperback -0.313957 -11.1397 4.74337
thorax -1.75447 -5.52949 8.58474
lowerneck -3.48984 -7.05246 -13.9981
upperneck 19.0212 -10.733 12.6841
head 7.84389 -5.18613 5.63348
rclavicle 3.14577e-014 -2.06736e-014
rhumerus -39.9843 -27.7292 -38.6127
rradius 39.8237
rwrist -26.9672
rhand -20.3791 14.6773
rfingers 7.12502
rthumb 5.97382 -15.2185
lclavicle 3.14577e-014 -2.06736e-014
lhumerus 8.52183 -53.404 94.2958
lradius 36.5308
lwrist -11.6301
lhand -5.46119 31.9259
lfingers 7.12502
lthumb 20.3502 -299.12
rfemur -30.5576 5.32172 27.9932
rtibia 42.4191
rfoot 1.55776 5.82347
rtoes 31.1696
lfemur 2.33557 1.24065 -29.5784
ltibia 46.6786
lfoot -22.2112 -11.3876
ltoes 16.22
682
root 2.68495 16.6179 8.42911 -6.22789 25.7075 1.73112
lowerback 5.70664 -8.24171 -5.69206
upperback 0.368813 -11.2619 4.62409
thorax -0.742866 -5.6581 8.50048
lowerneck -4.25675 -7.21129 -13.933
upperneck 18.8075 -10.8371 12.6635
head 7.92491 -5.20257 5.57352
rclavicle 6.70153e-014 -1.43125e-014
rhumerus -37.674 -27.5047 -40.1816
rradius 41.0999
rwrist -27.1477
rhand -19.8399 14.7811
rfingers 7.12502
rthumb 6.49433 -15.0993
lclavicle 6.70153e-014 -1.43125e-014
lhumerus 8.73019 -48.2977 93.3943
lradius 34.2371
lwrist -13.3158
lhand -5.53029 32.9218
lfingers 7.12502
lthumb 20.2838 -298.117
rfemur -30.4463 5.13407 27.7276
rtibia 42.4797
rfoot 1.51358 5.67009
rtoes 30.0606
lfemur 2.52067 0.888229 -29.6226
ltibia 46.7353
lfoot -22.1392 -11.7332
ltoes 16.3504
683
root 2.65305 16.6166 8.42634 -6.17448 26.08 1.6719
lowerback 5.75606 -8.23604 -5.48368
upperback 0.336982 -11.2425 4.49855
thorax -0.873204 -5.63923 8.27084
lowerneck -4.20834 -7.33196 -14.0653
upperneck 18.872 -10.9959 12.6271
head 7.96785 -5.29108 5.5667
rclavicle 1.50033e-013 -4.6118e-014
rhumerus -36.3771 -26.5236 -41.1541
rradius 42.3636
rwrist -26.9284
rhand -19.0864 14.9402
rfingers 7.12502
rthumb 7.22176 -14.9165
lclavicle 1.50033e-013 -4.6118e-014
lhumerus 7.20948 -42.0219 94.0881
lradius 31.9969
lwrist -15.6777
lhand -5.14137 33.9288
lfingers 7.12502
lthumb 20.6576 -297.151
rfemur -30.6243 5.20604 27.7144
rtibia 42.5116
rfoot 1.62473 5.50753
rtoes 29.042
lfemur 2.30283 0.615956 -29.4401
ltibia 46.9077
lfoot -21.9393 -12.0035
ltoes 17.1097
684
root 2.61556 16.6136 8.41415 -6.07101 26.3213 1.63642
lowerback 6.06063 -8.13642 -5.20149
upperback 0.106251 -11.1004 4.33603
thorax -1.39491 -5.53544 8.02924
lowerneck -3.75111 -7.42804 -14.3861
upperneck 18.8825 -11.2058 12.879
head 7.95358 -5.41184 5.69948
rclavicle -3.23771e-014 1.59028e-015
rhumerus -35.5728 -25.3346 -41.8377
rradius 43.6657
rwrist -26.6333
rhand -17.8702 15.1064
rfingers 7.12502
rthumb 8.39556 -14.7068
lclavicle -3.23771e-014 1.59028e-015
lhumerus 5.46544 -34.4711 95.0019
lradius 30.028
lwrist -19.0259
lhand -5.2051 34.6595
lfingers 7.12502
lthumb 20.5963 -296.413
rfemur -30.8826 5.31054 27.6859
rtibia 42.4431
rfoot 1.8875 5.52634
rtoes 28.234
lfemur 1.96229 0.346981 -29.3352
ltibia 47.0434
lfoot -21.6101 -12.0867
ltoes 17.9224
685
root 2.57827 16.6234 8.41351 -6.01576 26.7848 1.64687
lowerback 6.14379 -8.10902 -5.05312
upperback 0.120807 -11.0587 4.13352
thorax -1.50181 -5.50842 7.75303
lowerneck -3.70881 -7.57199 -14.5073
upperneck 18.9142 -11.448 13.0997
head 8.01412 -5.52 5.77024
rclavicle 1.37335e-013 -3.49861e-014
rhumerus -34.6394 -24.3891 -42.6273
rradius 45.0948
rwrist -25.9393
rhand -16.7213 15.0882
rfingers 7.12502
rthumb 9.50428 -14.6774
lclavicle 1.37335e-013 -3.49861e-014
lhumerus 4.63829 -27.2248 94.9087
lradius 28.5572
lwrist -21.2147
lhand -6.21619 35.6264
lfingers 7.12502
lthumb 19.6245 -295.344
rfemur -30.9238 5.32463 27.5796
rtibia 42.253
rfoot 1.96921 5.37895
rtoes 27.9648
lfemur 1.86273 -0.0203089 -29.2301
ltibia 47.0683
lfoot -21.5975 -12.1892
ltoes 17.561
686
root 2.54861 16.6425 8.41894 -5.94486 27.1946 1.7962
lowerback 6.06168 -8.0249 -4.92444
upperback 0.225131 -10.9389 3.84765
thorax -1.44865 -5.45113 7.36295
lowerneck -3.52467 -7.72614 -14.6611
upperneck 18.7305 -11.7201 13.4392
head 7.99234 -5.64276 5.8859
rclavicle -7.64079e-014 1.90833e-014
rhumerus -33.8956 -23.4538 -43.2683
rradius 46.5753
rwrist -24.8669
rhand -15.5834 15.3783
rfingers 7.12502
rthumb 10.602 -14.3343
lclavicle -7.64079e-014 1.90833e-014
lhumerus 4.13883 -20.1566 94.5113
lradius 27.4376
lwrist -22.5007
lhand -7.90571 36.6529
lfingers 7.12502
lthumb 17.9996 -294.16
rfemur -30.8111 5.27131 27.3555
rtibia 42.0034
rfoot 1.56488 5.92851
rtoes 22.7998
lfemur 1.90391 -0.173678 -29.2235
ltibia 46.9973
lfoot -21.9226 -12.2166
ltoes 15.9473
687
root 2.51416 16.6573 8.42212 -5.88852 27.5428 1.94874
lowerback 6.08193 -7.88666 -4.80525
upperback 0.274315 -10.7507 3.58062
thorax -1.51274 -5.35323 7.0202
lowerneck -3.15824 -7.85352 -14.8559
upperneck 18.4198 -11.9626 13.795
head 7.89592 -5.76212 6.02244
rclavicle 1.26377e-013 -9.54166e-015
rhumerus -33.3293 -22.6986 -43.5775
rradius 47.8191
rwrist -23.4091
rhand -14.1244 16.4359
rfingers 7.12502
rthumb 12.0091 -13.1996
lclavicle 1.26377e-013 -9.54166e-015
lhumerus 3.70609 -12.6579 94.1387
lradius 26.8727
lwrist -23.232
lhand -8.77057 38.0997
lfingers 7.12502
lthumb 17.1673 -292.639
rfemur -30.68 5.25669 27.1654
rtibia 41.7045
rfoot 2.24106 5.13336
rtoes 26.955
lfemur 1.92953 -0.266014 -29.1932
ltibia 46.8632
lfoot -22.3128 -12.6648
ltoes 14.797
688
root 2.47334 16.6605 8.41834 -5.76233 27.9618 2.02127
lowerback 6.20808 -7.79184 -4.80401
upperback 0.267101 -10.6295 3.49018
thorax -1.6262 -5.28665 6.94577
lowerneck -3.44375 -8.08529 -14.8012
upperneck 18.6 -12.2252 13.546
head 8.03197 -5.88647 5.88542
rclavicle -7.38982e-014 9.54166e-015
rhumerus -32.618 -21.9106 -43.7508
rradius 49.0266
rwrist -21.7827
rhand -13.0248 17.2539
rfingers 7.12502
rthumb 13.0693 -12.3166
lclavicle -7.38982e-014 9.54166e-015
lhumerus 3.53533 -6.06853 93.4427
lradius 26.694
lwrist -22.3363
lhand -9.73925 40.2582
lfingers 7.12502
lthumb 16.2347 -290.402
rfemur -30.6958 5.18582 27.0484
rtibia 41.3124
rfoot 2.56441 4.83698
rtoes 27.64
lfemur 1.82842 -0.664765 -29.1726
ltibia 46.7121
lfoot -22.5254 -13.4758
ltoes 15.0365
689
root 2.4341 16.6684 8.4197 -5.52144 28.3239 2.04234
lowerback 6.13701 -7.67134 -4.81827
upperback 0.217978 -10.467 3.49857
thorax -1.65852 -5.20249 6.9518
lowerneck -3.57652 -8.3707 -14.8482
upperneck 18.6351 -12.5516 13.2746
head 8.10741 -6.05682 5.75177
rclavicle 2.3879e-014 -1.59028e-015
rhumerus -31.9914 -20.7422 -43.8852
rradius 50.5518
rwrist -20.8282
rhand -12.7215 17.3654
rfingers 7.12502
rthumb 13.3617 -12.1861
lclavicle 2.3879e-014 -1.59028e-015
lhumerus 3.39054 -0.141316 92.6423
lradius 26.365
lwrist -21.5596
lhand -11.717 42.0467
lfingers 7.12502
lthumb 14.3297 -288.468
rfemur -30.7937 5.0531 27.0113
rtibia 40.8427
rfoot 2.87455 4.59448
rtoes 28.1539
lfemur 1.62488 -0.993216 -29.0775
ltibia 46.5382
lfoot -22.5771 -13.9908
ltoes 15.491
690
root 2.38965 16.6923 8.43533 -5.58755 28.2442 1.70985
lowerback 5.9621 -7.40524 -4.50337
upperback 0.230927 -10.0834 3.48549
thorax -1.66259 -5.01149 6.73251
lowerneck -3.04857 -8.55969 -15.0306
upperneck 18.2204 -12.854 13.4365
head 7.94623 -6.22465 5.81601
rclavicle 3.00662e-015 -1.90833e-014
rhumerus -31.6727 -19.2417 -44.1709
rradius 52.4205
rwrist -21.0504
rhand -13.146 17.2708
rfingers 7.12502
rthumb 12.9525 -12.3072
lclavicle 3.00662e-015 -1.90833e-014
lhumerus 3.12401 5.67984 91.726
lradius 26.2022
lwrist -20.7872
lhand -12.8493 45.147
lfingers 7.12502
lthumb 13.2385 -285.293
rfemur -30.5756 5.29673 27.479
rtibia 40.3065
rfoot 2.8046 4.8752
rtoes 25.0821
lfemur 1.63377 -0.703614 -28.393
ltibia 46.2839
lfoot -22.6702 -14.3932
ltoes 15.6583
691
root 2.34481 16.7177 8.4377 -5.54629 28.5739 1.58692
lowerback 5.9833 -7.25377 -4.29537
upperback 0.158105 -9.86928 3.37059
thorax -1.8368 -4.89594 6.50767
lowerneck -2.66024 -8.70786 -15.218
upperneck 18.0008 -13.1213 13.6924
head 7.87728 -6.36335 5.91597
rclavicle -1.21259e-014 0
rhumerus -31.554 -17.4296 -44.562
rradius 54.6004
rwrist -22.1363
rhand -14.115 17.1156
rfingers 7.12502
rthumb 12.0182 -12.5193
lclavicle -1.21259e-014 0
lhumerus 2.76935 10.6753 90.5062
lradius 26.5863
lwrist -18.8285
lhand -13.2871 49.1937
lfingers 7.12502
lthumb 12.8165 -281.22
rfemur -30.4432 5.11124 27.6387
rtibia 39.7802
rfoot 4.06433 3.26652
rtoes 33.4545
lfemur 1.59783 -0.956251 -28.1007
ltibia 45.9728
lfoot -22.4643 -14.6192
ltoes 16.5099
692
root 2.30386 16.7337 8.43041 -5.35425 28.9806 1.86899
lowerback 6.15291 -7.08143 -4.44209
upperback 0.0941244 -9.6589 3.19664
thorax -2.03325 -4.77955 6.43249
lowerneck -2.36773 -8.86709 -15.466
upperneck 17.8044 -13.3997 14.003
head 7.84508 -6.50373 6.03967
rclavicle 2.74074e-014 -3.18055e-015
rhumerus -31.5526 -17.2389 -43.8347
rradius 55.1126
rwrist -17.5657
rhand -10.8125 19.8236
rfingers 7.12502
rthumb 15.2011 -9.59801
lclavicle 2.74074e-014 -3.18055e-015
lhumerus 2.46939 14.9615 89.1639
lradius 27.1674
lwrist -16.8144
lhand -14.1072 51.2705
lfingers 7.12502
lthumb 12.0257 -279.095
rfemur -30.337 4.68041 27.3972
rtibia 39.2836
rfoot 3.32246 4.90342
rtoes 24.1298
lfemur 1.64298 -1.37286 -28.3044
ltibia 45.6185
lfoot -22.1637 -14.725
ltoes 17.9093
693
root 2.255 16.7454 8.42579 -5.07385 29.1956 2.22758
lowerback 6.20299 -6.83883 -4.75236
upperback 0.144095 -9.36301 3.03726
thorax -2.02795 -4.6298 6.42784
lowerneck -2.1954 -9.05824 -15.6154
upperneck 17.4405 -13.7001 14.3368
head 7.77956 -6.64319 6.14479
rclavicle 1.05107e-014 1.27222e-014
rhumerus -31.4592 -15.8088 -44.0284
rradius 57.1642
rwrist -18.5596
rhand -12.0744 19.8131
rfingers 7.12502
rthumb 13.9853 -9.69648
lclavicle 1.05107e-014 1.27222e-014
lhumerus 2.67046 19.5593 87.9672
lradius 27.4569
lwrist -15.4124
lhand -14.8257 51.4023
lfingers 7.12502
lthumb 11.3329 -278.924
rfemur -30.332 4.56229 27.1139
rtibia 38.842
rfoot 4.38795 3.39856
rtoes 33.2082
lfemur 1.63929 -1.6807 -28.5463
ltibia 45.2842
lfoot -22.2347 -14.5625
ltoes 18.0707
